<svg width="114" height="24" viewBox="0 0 114 24" fill="none" xmlns="http://www.w3.org/2000/svg">
<path d="M9.501 23L-0.163 0.599998H5.437L13.885 20.44H10.589L19.165 0.599998H24.317L14.621 23H9.501ZM36.8173 23.384C35.0466 23.384 33.4039 23.096 31.8893 22.52C30.3959 21.944 29.0946 21.1333 27.9852 20.088C26.8973 19.0427 26.0439 17.816 25.4253 16.408C24.8279 15 24.5293 13.464 24.5293 11.8C24.5293 10.136 24.8279 8.6 25.4253 7.192C26.0439 5.784 26.9079 4.55733 28.0173 3.512C29.1266 2.46667 30.4279 1.656 31.9213 1.08C33.4146 0.503999 35.0359 0.216 36.7853 0.216C38.5559 0.216 40.1772 0.503999 41.6493 1.08C43.1426 1.656 44.4333 2.46667 45.5213 3.512C46.6306 4.55733 47.4946 5.784 48.1133 7.192C48.7319 8.57867 49.0413 10.1147 49.0413 11.8C49.0413 13.464 48.7319 15.0107 48.1133 16.44C47.4946 17.848 46.6306 19.0747 45.5213 20.12C44.4333 21.144 43.1426 21.944 41.6493 22.52C40.1772 23.096 38.5666 23.384 36.8173 23.384ZM36.7853 18.968C37.7879 18.968 38.7053 18.7973 39.5373 18.456C40.3906 18.1147 41.1373 17.624 41.7773 16.984C42.4173 16.344 42.9079 15.5867 43.2493 14.712C43.6119 13.8373 43.7933 12.8667 43.7933 11.8C43.7933 10.7333 43.6119 9.76267 43.2493 8.888C42.9079 8.01333 42.4173 7.256 41.7773 6.616C41.1586 5.976 40.4226 5.48533 39.5693 5.144C38.7159 4.80267 37.7879 4.632 36.7853 4.632C35.7826 4.632 34.8546 4.80267 34.0013 5.144C33.1693 5.48533 32.4333 5.976 31.7933 6.616C31.1533 7.256 30.6519 8.01333 30.2893 8.888C29.9479 9.76267 29.7773 10.7333 29.7773 11.8C29.7773 12.8453 29.9479 13.816 30.2893 14.712C30.6519 15.5867 31.1426 16.344 31.7613 16.984C32.4013 17.624 33.1479 18.1147 34.0013 18.456C34.8546 18.7973 35.7826 18.968 36.7853 18.968ZM52.9373 23V0.599998H58.1213V18.776H69.3533V23H52.9373ZM73.2418 23V13.912H69.6578V11.8H79.4178V13.912H75.8338V23H73.2418ZM83.1964 16.312H88.5884V18.328H83.1964V16.312ZM83.3884 20.92H89.4844V23H80.8124V11.8H89.2764V13.88H83.3884V20.92ZM96.9068 23.192C96.0428 23.192 95.2374 23.0533 94.4908 22.776C93.7548 22.488 93.1148 22.0827 92.5707 21.56C92.0268 21.0373 91.6001 20.424 91.2908 19.72C90.9921 19.016 90.8428 18.2427 90.8428 17.4C90.8428 16.5573 90.9921 15.784 91.2908 15.08C91.6001 14.376 92.0268 13.7627 92.5707 13.24C93.1254 12.7173 93.7708 12.3173 94.5068 12.04C95.2428 11.752 96.0481 11.608 96.9228 11.608C97.8934 11.608 98.7681 11.7787 99.5468 12.12C100.336 12.4507 100.997 12.9413 101.531 13.592L99.8668 15.128C99.4828 14.6907 99.0561 14.3653 98.5868 14.152C98.1174 13.928 97.6054 13.816 97.0508 13.816C96.5281 13.816 96.0481 13.9013 95.6108 14.072C95.1734 14.2427 94.7948 14.488 94.4748 14.808C94.1548 15.128 93.9041 15.5067 93.7228 15.944C93.5521 16.3813 93.4668 16.8667 93.4668 17.4C93.4668 17.9333 93.5521 18.4187 93.7228 18.856C93.9041 19.2933 94.1548 19.672 94.4748 19.992C94.7948 20.312 95.1734 20.5573 95.6108 20.728C96.0481 20.8987 96.5281 20.984 97.0508 20.984C97.6054 20.984 98.1174 20.8773 98.5868 20.664C99.0561 20.44 99.4828 20.104 99.8668 19.656L101.531 21.192C100.997 21.8427 100.336 22.3387 99.5468 22.68C98.7681 23.0213 97.8881 23.192 96.9068 23.192ZM110.961 11.8H113.553V23H110.961V11.8ZM105.873 23H103.281V11.8H105.873V23ZM111.153 18.408H105.681V16.216H111.153V18.408Z" fill="#EEE1D8"/>
</svg>
