<svg width="116" height="40" viewBox="0 0 116 40" fill="none" xmlns="http://www.w3.org/2000/svg">
<g clip-path="url(#clip0_189_627)">
<path d="M10.001 31.5L0.337 9.1H5.937L14.385 28.94H11.089L19.665 9.1H24.817L15.121 31.5H10.001ZM37.3173 31.884C35.5466 31.884 33.9039 31.596 32.3893 31.02C30.8959 30.444 29.5946 29.6333 28.4852 28.588C27.3973 27.5427 26.5439 26.316 25.9253 24.908C25.3279 23.5 25.0293 21.964 25.0293 20.3C25.0293 18.636 25.3279 17.1 25.9253 15.692C26.5439 14.284 27.4079 13.0573 28.5173 12.012C29.6266 10.9667 30.9279 10.156 32.4213 9.58C33.9146 9.004 35.5359 8.716 37.2853 8.716C39.0559 8.716 40.6772 9.004 42.1493 9.58C43.6426 10.156 44.9333 10.9667 46.0213 12.012C47.1306 13.0573 47.9946 14.284 48.6133 15.692C49.2319 17.0787 49.5413 18.6147 49.5413 20.3C49.5413 21.964 49.2319 23.5107 48.6133 24.94C47.9946 26.348 47.1306 27.5747 46.0213 28.62C44.9333 29.644 43.6426 30.444 42.1493 31.02C40.6772 31.596 39.0666 31.884 37.3173 31.884ZM37.2853 27.468C38.2879 27.468 39.2053 27.2973 40.0373 26.956C40.8906 26.6147 41.6373 26.124 42.2773 25.484C42.9173 24.844 43.4079 24.0867 43.7493 23.212C44.1119 22.3373 44.2933 21.3667 44.2933 20.3C44.2933 19.2333 44.1119 18.2627 43.7493 17.388C43.4079 16.5133 42.9173 15.756 42.2773 15.116C41.6586 14.476 40.9226 13.9853 40.0693 13.644C39.2159 13.3027 38.2879 13.132 37.2853 13.132C36.2826 13.132 35.3546 13.3027 34.5013 13.644C33.6693 13.9853 32.9333 14.476 32.2933 15.116C31.6533 15.756 31.1519 16.5133 30.7893 17.388C30.4479 18.2627 30.2773 19.2333 30.2773 20.3C30.2773 21.3453 30.4479 22.316 30.7893 23.212C31.1519 24.0867 31.6426 24.844 32.2613 25.484C32.9013 26.124 33.6479 26.6147 34.5013 26.956C35.3546 27.2973 36.2826 27.468 37.2853 27.468ZM53.4373 31.5V9.1H58.6213V27.276H69.8533V31.5H53.4373ZM73.7418 31.5V22.412H70.1578V20.3H79.9178V22.412H76.3338V31.5H73.7418ZM83.6964 24.812H89.0884V26.828H83.6964V24.812ZM83.8884 29.42H89.9844V31.5H81.3124V20.3H89.7764V22.38H83.8884V29.42ZM97.4068 31.692C96.5428 31.692 95.7374 31.5533 94.9908 31.276C94.2548 30.988 93.6148 30.5827 93.0707 30.06C92.5268 29.5373 92.1001 28.924 91.7908 28.22C91.4921 27.516 91.3428 26.7427 91.3428 25.9C91.3428 25.0573 91.4921 24.284 91.7908 23.58C92.1001 22.876 92.5268 22.2627 93.0707 21.74C93.6254 21.2173 94.2708 20.8173 95.0068 20.54C95.7428 20.252 96.5481 20.108 97.4228 20.108C98.3934 20.108 99.2681 20.2787 100.047 20.62C100.836 20.9507 101.497 21.4413 102.031 22.092L100.367 23.628C99.9828 23.1907 99.5561 22.8653 99.0868 22.652C98.6174 22.428 98.1054 22.316 97.5508 22.316C97.0281 22.316 96.5481 22.4013 96.1108 22.572C95.6734 22.7427 95.2948 22.988 94.9748 23.308C94.6548 23.628 94.4041 24.0067 94.2228 24.444C94.0521 24.8813 93.9668 25.3667 93.9668 25.9C93.9668 26.4333 94.0521 26.9187 94.2228 27.356C94.4041 27.7933 94.6548 28.172 94.9748 28.492C95.2948 28.812 95.6734 29.0573 96.1108 29.228C96.5481 29.3987 97.0281 29.484 97.5508 29.484C98.1054 29.484 98.6174 29.3773 99.0868 29.164C99.5561 28.94 99.9828 28.604 100.367 28.156L102.031 29.692C101.497 30.3427 100.836 30.8387 100.047 31.18C99.2681 31.5213 98.3881 31.692 97.4068 31.692ZM111.461 20.3H114.053V31.5H111.461V20.3ZM106.373 31.5H103.781V20.3H106.373V31.5ZM111.653 26.908H106.181V24.716H111.653V26.908Z" fill="#173448"/>
</g>
<defs>
<clipPath id="clip0_189_627">
<rect width="115" height="39" fill="white" transform="translate(0.5 0.5)"/>
</clipPath>
</defs>
</svg>
