<svg width="181" height="61" viewBox="0 0 181 61" fill="none" xmlns="http://www.w3.org/2000/svg">
<mask id="mask0_177_1763" style="mask-type:luminance" maskUnits="userSpaceOnUse" x="0" y="0" width="181" height="61">
<path d="M180.5 0H0.5V61H180.5V0Z" fill="white"/>
</mask>
<g mask="url(#mask0_177_1763)">
<path d="M15.3711 48.4871L0.244873 13.4512H9.01009L22.233 44.483H17.0741L30.4974 13.4512H38.5614L23.385 48.4871H15.3711ZM58.1271 49.0877C55.3555 49.0877 52.7844 48.6373 50.4137 47.7363C48.0762 46.8354 46.0394 45.5674 44.3029 43.9324C42.6001 42.2975 41.2644 40.3788 40.2961 38.1765C39.3611 35.9743 38.8937 33.5718 38.8937 30.9691C38.8937 28.3665 39.3611 25.964 40.2961 23.7618C41.2644 21.5595 42.6167 19.6408 44.3532 18.0059C46.0895 16.3709 48.1263 15.1029 50.4638 14.202C52.8011 13.301 55.3388 12.8506 58.077 12.8506C60.8484 12.8506 63.3861 13.301 65.6902 14.202C68.0275 15.1029 70.0478 16.3709 71.7507 18.0059C73.487 19.6408 74.8394 21.5595 75.8078 23.7618C76.776 25.9307 77.2603 28.3332 77.2603 30.9691C77.2603 33.5718 76.776 35.991 75.8078 38.2266C74.8394 40.4288 73.487 42.3475 71.7507 43.9825C70.0478 45.5841 68.0275 46.8354 65.6902 47.7363C63.3861 48.6373 60.8651 49.0877 58.1271 49.0877ZM58.077 42.1806C59.6463 42.1806 61.0822 41.9136 62.3845 41.3798C63.7201 40.846 64.8888 40.0785 65.8906 39.0775C66.8923 38.0764 67.6602 36.8919 68.1946 35.5238C68.7621 34.1557 69.046 32.6376 69.046 30.9691C69.046 29.3007 68.7621 27.7826 68.1946 26.4145C67.6602 25.0464 66.8923 23.8619 65.8906 22.8608C64.9222 21.8598 63.7702 21.0923 62.4346 20.5585C61.0988 20.0247 59.6463 19.7577 58.077 19.7577C56.5075 19.7577 55.055 20.0247 53.7194 20.5585C52.4172 21.0923 51.2652 21.8598 50.2634 22.8608C49.2617 23.8619 48.4769 25.0464 47.9093 26.4145C47.375 27.7826 47.108 29.3007 47.108 30.9691C47.108 32.6041 47.375 34.1224 47.9093 35.5238C48.4769 36.8919 49.2449 38.0764 50.2133 39.0775C51.2151 40.0785 52.3837 40.846 53.7194 41.3798C55.055 41.9136 56.5075 42.1806 58.077 42.1806ZM83.3584 48.4871V13.4512H91.4725V41.8803H109.053V48.4871H83.3584ZM115.139 48.4871V34.2725H109.53V30.9691H124.806V34.2725H119.196V48.4871H115.139ZM130.72 38.0264H139.16V41.1796H130.72V38.0264ZM131.021 45.2338H140.563V48.4871H126.989V30.9691H140.237V34.2225H131.021V45.2338ZM152.18 48.7874C150.828 48.7874 149.567 48.5705 148.399 48.1367C147.247 47.6863 146.245 47.0523 145.393 46.2348C144.542 45.4172 143.874 44.458 143.39 43.3568C142.922 42.2557 142.689 41.0462 142.689 39.7281C142.689 38.4101 142.922 37.2005 143.39 36.0994C143.874 34.9983 144.542 34.039 145.393 33.2215C146.262 32.4039 147.272 31.7783 148.424 31.3445C149.576 30.8941 150.836 30.6688 152.205 30.6688C153.724 30.6688 155.094 30.9358 156.312 31.4697C157.548 31.9869 158.582 32.7543 159.418 33.772L156.813 36.1745C156.212 35.4905 155.544 34.9815 154.81 34.6479C154.075 34.2976 153.274 34.1224 152.406 34.1224C151.587 34.1224 150.836 34.2558 150.152 34.5228C149.467 34.7898 148.874 35.1735 148.374 35.674C147.873 36.1745 147.48 36.7668 147.197 37.4508C146.929 38.1348 146.796 38.894 146.796 39.7281C146.796 40.5623 146.929 41.3215 147.197 42.0055C147.48 42.6894 147.873 43.2818 148.374 43.7823C148.874 44.2828 149.467 44.6665 150.152 44.9335C150.836 45.2005 151.587 45.3339 152.406 45.3339C153.274 45.3339 154.075 45.167 154.81 44.8334C155.544 44.483 156.212 43.9575 156.813 43.2567L159.418 45.6592C158.582 46.677 157.548 47.4528 156.312 47.9866C155.094 48.5204 153.716 48.7874 152.18 48.7874ZM174.178 30.9691H178.235V48.4871H174.178V30.9691ZM166.214 48.4871H162.157V30.9691H166.214V48.4871ZM174.479 41.3047H165.914V37.8762H174.479V41.3047Z" fill="#EEE1D8"/>
</g>
</svg>
