<svg width="500" height="500" viewBox="0 0 500 500" fill="none" xmlns="http://www.w3.org/2000/svg">
<g clip-path="url(#clip0_325_33)">
<path d="M0 200C0 89.543 89.5431 0 200 0H300C410.457 0 500 89.5431 500 200V300C500 410.457 410.457 500 300 500H200C89.543 500 0 410.457 0 300V200Z" fill="#1877F2"/>
<path d="M97.1605 392.004C103.66 372.051 104.659 351.599 99.6601 343.618C94.6608 335.637 188.739 407.467 183.239 412.954C177.739 418.441 141.739 428.916 128.744 430.912C104.239 436.399 68.2714 436.41 71.1642 429.914C74.057 423.418 90.6614 411.957 97.1605 392.004Z" fill="white"/>
<circle cx="303" cy="201" r="265" fill="white"/>
<path d="M113.333 289L165.278 184.417H119.444V164H198.75L146.806 268.583H195.972V289H113.333ZM248.238 290.944C240.645 290.944 233.701 289 227.405 285.111C221.108 281.13 216.062 275.852 212.266 269.278C208.562 262.611 206.71 255.296 206.71 247.333C206.71 239.37 208.562 232.102 212.266 225.528C216.062 218.861 221.108 213.583 227.405 209.694C233.701 205.713 240.645 203.722 248.238 203.722C253.701 203.722 258.747 204.694 263.377 206.639C268.006 208.583 271.942 211.315 275.182 214.833V205.667H294.21V289H275.182V279.833C271.942 283.259 268.006 285.991 263.377 288.028C258.747 289.972 253.701 290.944 248.238 290.944ZM250.877 271.639C255.321 271.639 259.303 270.528 262.821 268.306C266.432 266.083 269.303 263.167 271.432 259.556C273.562 255.852 274.627 251.778 274.627 247.333C274.627 242.889 273.562 238.861 271.432 235.25C269.303 231.546 266.432 228.583 262.821 226.361C259.303 224.139 255.367 223.028 251.016 223.028C246.571 223.028 242.543 224.139 238.932 226.361C235.414 228.583 232.59 231.546 230.46 235.25C228.33 238.861 227.266 242.889 227.266 247.333C227.266 251.778 228.33 255.852 230.46 259.556C232.59 263.167 235.414 266.083 238.932 268.306C242.543 270.528 246.525 271.639 250.877 271.639ZM314.948 289V155.667H336.753V289H314.948ZM397.526 291.5C389.285 291.5 381.739 289.509 374.887 285.528C368.128 281.546 362.758 276.222 358.776 269.556C354.795 262.889 352.804 255.481 352.804 247.333C352.804 239.185 354.795 231.778 358.776 225.111C362.758 218.444 368.128 213.12 374.887 209.139C381.739 205.157 389.239 203.167 397.387 203.167C405.72 203.167 413.267 205.157 420.026 209.139C426.785 213.12 432.156 218.444 436.137 225.111C440.211 231.685 442.248 239.093 442.248 247.333C442.248 255.389 440.211 262.796 436.137 269.556C432.156 276.222 426.785 281.546 420.026 285.528C413.267 289.509 405.767 291.5 397.526 291.5ZM397.387 271.778C401.924 271.778 405.998 270.667 409.609 268.444C413.22 266.222 416.091 263.259 418.22 259.556C420.35 255.852 421.415 251.778 421.415 247.333C421.415 242.796 420.35 238.722 418.22 235.111C416.091 231.407 413.22 228.444 409.609 226.222C405.998 224 401.924 222.889 397.387 222.889C392.943 222.889 388.915 224 385.304 226.222C381.693 228.444 378.822 231.407 376.693 235.111C374.563 238.722 373.498 242.796 373.498 247.333C373.498 251.778 374.563 255.852 376.693 259.556C378.822 263.259 381.693 266.222 385.304 268.444C388.915 270.667 392.943 271.778 397.387 271.778Z" fill="#0068FF"/>
</g>
<defs>
<clipPath id="clip0_325_33">
<rect width="500" height="500" rx="200" fill="white"/>
</clipPath>
</defs>
</svg>
