<svg width="15" height="11" viewBox="0 0 15 11" fill="none" xmlns="http://www.w3.org/2000/svg">
<path d="M1.8125 0.5C1.08789 0.5 0.5 1.0599 0.5 1.75C0.5 2.14323 0.694141 2.51302 1.025 2.75L6.975 7C7.28672 7.22135 7.71328 7.22135 8.025 7L13.975 2.75C14.3059 2.51302 14.5 2.14323 14.5 1.75C14.5 1.0599 13.9121 0.5 13.1875 0.5H1.8125ZM0.5 3.41667V8.83333C0.5 9.7526 1.28477 10.5 2.25 10.5H12.75C13.7152 10.5 14.5 9.7526 14.5 8.83333V3.41667L8.55 7.66667C7.92656 8.11198 7.07344 8.11198 6.45 7.66667L0.5 3.41667Z" fill="white"/>
</svg>
