<svg width="36" height="37" viewBox="0 0 36 37" fill="none" xmlns="http://www.w3.org/2000/svg">
<path d="M28.0547 27.5141C26.5008 24.8141 23.5828 23 20.25 23H15.75C12.4172 23 9.49922 24.8141 7.94531 27.5141C10.4203 30.2703 14.0063 32 18 32C21.9937 32 25.5797 30.2633 28.0547 27.5141ZM0 18.5C0 13.7261 1.89642 9.14773 5.27208 5.77208C8.64773 2.39642 13.2261 0.5 18 0.5C22.7739 0.5 27.3523 2.39642 30.7279 5.77208C34.1036 9.14773 36 13.7261 36 18.5C36 23.2739 34.1036 27.8523 30.7279 31.2279C27.3523 34.6036 22.7739 36.5 18 36.5C13.2261 36.5 8.64773 34.6036 5.27208 31.2279C1.89642 27.8523 0 23.2739 0 18.5ZM18 19.625C19.3427 19.625 20.6303 19.0916 21.5797 18.1422C22.5291 17.1928 23.0625 15.9052 23.0625 14.5625C23.0625 13.2198 22.5291 11.9322 21.5797 10.9828C20.6303 10.0334 19.3427 9.5 18 9.5C16.6573 9.5 15.3697 10.0334 14.4203 10.9828C13.4709 11.9322 12.9375 13.2198 12.9375 14.5625C12.9375 15.9052 13.4709 17.1928 14.4203 18.1422C15.3697 19.0916 16.6573 19.625 18 19.625Z" fill="white"/>
</svg>
