<svg width="14" height="14" viewBox="0 0 14 14" fill="none" xmlns="http://www.w3.org/2000/svg">
<path d="M7 0C7.40832 0 7.79991 0.161328 8.08863 0.448493C8.37735 0.735658 8.53956 1.12514 8.53956 1.53125C8.53956 1.93736 8.37735 2.32684 8.08863 2.61401C7.79991 2.90117 7.40832 3.0625 7 3.0625C6.59168 3.0625 6.20009 2.90117 5.91137 2.61401C5.62265 2.32684 5.46044 1.93736 5.46044 1.53125C5.46044 1.12514 5.62265 0.735658 5.91137 0.448493C6.20009 0.161328 6.59168 0 7 0ZM3.64872 3.93203C3.73944 3.57656 4.0611 3.28125 4.47898 3.28125C4.81713 3.28125 5.1003 3.47813 5.24051 3.74609C5.57041 4.38047 6.23572 4.8125 7 4.8125C7.76428 4.8125 8.42959 4.38047 8.75949 3.74609C8.8997 3.47813 9.18287 3.28125 9.52102 3.28125C9.94165 3.28125 10.2633 3.57656 10.3513 3.93203C10.5437 4.69219 11.2365 5.25273 12.0585 5.25273C12.3555 5.25273 12.6359 5.17891 12.8778 5.05039C13.1087 4.93008 13.3974 4.92734 13.6366 5.075C13.994 5.29375 14.1067 5.75859 13.8895 6.11406L10.9506 10.9375H10.519H9.40831H4.59444H3.48102H3.04939L0.110488 6.11406C-0.106699 5.75859 0.00601816 5.29375 0.363415 5.075C0.602596 4.93008 0.891263 4.93008 1.1222 5.05039C1.36688 5.17891 1.64455 5.25273 1.94146 5.25273C2.76347 5.25273 3.45627 4.69219 3.64872 3.93203ZM3.04114 11.8125H10.9589L12.097 12.9445C12.2125 13.0594 12.2785 13.218 12.2785 13.382C12.2785 13.7238 12.0008 14 11.6572 14H2.34284C1.99919 14 1.72152 13.7238 1.72152 13.382C1.72152 13.218 1.7875 13.0594 1.90297 12.9445L3.04114 11.8125Z" fill="#FFA536"/>
</svg>
