<svg width="15" height="15" viewBox="0 0 15 15" fill="none" xmlns="http://www.w3.org/2000/svg">
<path d="M5.00879 1.17324C4.79825 0.664672 4.24319 0.393981 3.71275 0.538896L1.30661 1.19512C0.830845 1.32636 0.5 1.75837 0.5 2.25054C0.5 9.01509 5.98491 14.5 12.7495 14.5C13.2416 14.5 13.6736 14.1692 13.8049 13.6934L14.4611 11.2873C14.606 10.7568 14.3353 10.2018 13.8268 9.99121L11.2019 8.89751C10.7562 8.71158 10.2394 8.84009 9.93591 9.21469L8.83127 10.5627C6.90636 9.65217 5.34783 8.09364 4.43733 6.16873L5.78531 5.06682C6.15991 4.76059 6.28842 4.24655 6.10249 3.80086L5.00879 1.17598V1.17324Z" fill="white"/>
</svg>
